<svg width="12" height="8" viewBox="0 0 12 8" fill="none" xmlns="http://www.w3.org/2000/svg">
<path d="M-4.3869e-05 1.84803C-4.3869e-05 1.47984 0.135811 1.11139 0.409083 0.823516C0.974924 0.22847 1.91625 0.204741 2.51156 0.770322L6.01039 4.09705L9.48496 0.773711C10.0782 0.206045 11.0195 0.226906 11.5874 0.820387C12.1554 1.41413 12.1342 2.3552 11.5408 2.92286L7.04194 7.22665C6.46827 7.77528 5.56475 7.77632 4.98926 7.23004L0.462276 2.92651C0.155367 2.63369 -4.3869e-05 2.24177 -4.3869e-05 1.84803Z" fill="#A6AAAF"/>
<path d="M-4.3869e-05 1.84803C-4.3869e-05 1.47984 0.135811 1.11139 0.409083 0.823516C0.974924 0.22847 1.91625 0.204741 2.51156 0.770322L6.01039 4.09705L9.48496 0.773711C10.0782 0.206045 11.0195 0.226906 11.5874 0.820387C12.1554 1.41413 12.1342 2.3552 11.5408 2.92286L7.04194 7.22665C6.46827 7.77528 5.56475 7.77632 4.98926 7.23004L0.462276 2.92651C0.155367 2.63369 -4.3869e-05 2.24177 -4.3869e-05 1.84803Z" fill="#FF6F00"/>
</svg>
