<svg width="8" height="8" viewBox="0 0 8 8" fill="none" xmlns="http://www.w3.org/2000/svg">
<path d="M7.85549 1.78062L7.15356 1.0787C7.05732 0.982381 6.94026 0.934204 6.80267 0.934204C6.66496 0.934204 6.5479 0.982381 6.45166 1.0787L3.06581 4.46967L1.54838 2.94707C1.45202 2.85072 1.33504 2.80259 1.19745 2.80259C1.05977 2.80259 0.942791 2.85072 0.846436 2.94707L0.144514 3.64901C0.0481591 3.74535 0 3.86236 0 4.00003C0 4.13758 0.0481591 4.2547 0.144514 4.35102L2.01287 6.21934L2.71484 6.92126C2.81114 7.01765 2.92816 7.06577 3.06581 7.06577C3.20339 7.06577 3.32041 7.01752 3.41677 6.92126L4.11873 6.21934L7.85549 2.4826C7.95175 2.38624 8 2.26924 8 2.13158C8.00007 1.99399 7.95175 1.87698 7.85549 1.78062Z" fill="white"/>
</svg>
