<svg width="10" height="7" viewBox="0 0 10 7" fill="none" xmlns="http://www.w3.org/2000/svg">
<path d="M0.0194979 1.88599C0.0194979 1.60985 0.121388 1.33351 0.326343 1.11761C0.750723 0.671322 1.45672 0.653525 1.9032 1.07771L4.52732 3.57276L7.13325 1.08025C7.57817 0.654503 8.28417 0.670149 8.71011 1.11526C9.13606 1.56057 9.12021 2.26637 8.6751 2.69212L5.30098 5.91995C4.87074 6.33143 4.1931 6.33221 3.76148 5.92249L0.366238 2.69486C0.136055 2.47523 0.0194979 2.1813 0.0194979 1.88599Z" fill="#A6AAAF"/>
<path d="M0.0194979 1.88599C0.0194979 1.60985 0.121388 1.33351 0.326343 1.11761C0.750723 0.671322 1.45672 0.653525 1.9032 1.07771L4.52732 3.57276L7.13325 1.08025C7.57817 0.654503 8.28417 0.670149 8.71011 1.11526C9.13606 1.56057 9.12021 2.26637 8.6751 2.69212L5.30098 5.91995C4.87074 6.33143 4.1931 6.33221 3.76148 5.92249L0.366238 2.69486C0.136055 2.47523 0.0194979 2.1813 0.0194979 1.88599Z" fill="#FF6F00"/>
</svg>
