<svg width="463" height="400" viewBox="0 0 463 400" fill="none" xmlns="http://www.w3.org/2000/svg">
<path d="M241.692 398.623C351.722 398.623 440.919 309.426 440.919 199.396C440.919 89.3655 351.722 0.168213 241.692 0.168213C131.662 0.168213 42.4643 89.3655 42.4643 199.396C42.4643 309.426 131.662 398.623 241.692 398.623Z" fill="white"/>
<path d="M235.273 380.53C288.038 380.53 330.813 377.223 330.813 373.143C330.813 369.063 288.038 365.756 235.273 365.756C182.507 365.756 139.732 369.063 139.732 373.143C139.732 377.223 182.507 380.53 235.273 380.53Z" fill="#3C4A8F"/>
<path d="M233.832 298.044C235.868 284.852 241.323 272.204 249.516 261.669" stroke="#7A3D2C" stroke-miterlimit="10" stroke-linecap="round" stroke-linejoin="round"/>
<path d="M258.736 282.267C258.939 288.706 238.859 282.529 238.028 282.267C238.008 282.257 237.999 282.257 237.999 282.257C237.999 282.257 257.16 274.088 258.668 281.658C258.707 281.871 258.736 282.074 258.736 282.267Z" fill="#FF6B3D"/>
<path d="M258.736 282.267C258.939 288.706 238.859 282.529 238.028 282.267C238.705 282.335 251.06 283.698 258.736 282.267Z" fill="#FFA822"/>
<path d="M238.018 281.967C238.008 282.161 237.999 282.257 237.999 282.257C237.999 282.257 225.208 268.027 232.508 264.856C232.875 264.701 233.213 264.604 233.532 264.556C239.178 263.753 238.202 279.618 238.018 281.967Z" fill="#FF6B3D"/>
<path d="M238.018 281.967C238.008 282.161 237.999 282.257 237.999 282.257C237.999 282.257 225.208 268.026 232.508 264.855C232.875 264.701 233.213 264.604 233.532 264.556C233.513 270.617 235.079 276.669 238.018 281.967Z" fill="#FFA822"/>
<path d="M243.558 270.526C243.558 270.526 266.661 275.626 265.559 264.527C264.871 258.522 254.578 262.931 254.578 262.931C254.578 262.931 259.848 254.717 254.578 251.592C249.307 248.469 245.313 256.645 245.313 256.645C245.313 256.645 248.481 244.061 241.043 245.714C233.606 247.367 236.292 263.935 243.558 270.526Z" fill="#FFA822"/>
<path d="M244.033 269.709C244.033 269.709 256.884 271.994 256.244 265.541C255.843 262.051 249.859 264.613 249.859 264.613C249.859 264.613 252.923 259.839 249.859 258.022C246.795 256.206 244.473 260.959 244.473 260.959C244.473 260.959 246.315 253.644 241.992 254.605C237.668 255.567 239.811 265.878 244.033 269.709Z" fill="white"/>
<path d="M424.627 272.125C419.557 252.091 404.583 234.823 385.47 226.965C372.674 221.705 357.956 220.275 347.152 211.633C337.091 203.586 332.17 190.028 333.355 177.199C334.54 164.37 341.378 152.421 350.916 143.76C360.454 135.099 372.53 129.554 385.035 126.457C369.849 114.699 354.746 100.924 339.56 89.1659C310.007 102.488 286.801 130.354 281.411 162.32C276.021 194.286 289.746 229.307 316.782 247.195C328.189 254.743 341.319 259.16 354.004 264.281C366.689 269.402 379.4 275.537 388.657 285.608C397.914 295.679 403.088 310.516 398.459 323.388C413.76 310.099 429.6 291.769 424.627 272.125Z" fill="#1492B8"/>
<path d="M361.144 125.189L328.981 99.9854L326.596 103.029L358.759 128.233L361.144 125.189Z" fill="white"/>
<path d="M333.311 123.023L317.03 111.566L315.361 113.938L331.642 125.395L333.311 123.023Z" fill="white"/>
<path d="M349.812 135.133L339.764 128.062L338.095 130.434L348.143 137.505L349.812 135.133Z" fill="white"/>
<path d="M323.994 134.806L307.712 123.349L306.043 125.721L322.325 137.178L323.994 134.806Z" fill="white"/>
<path d="M340.511 146.908L330.462 139.836L328.793 142.208L338.842 149.28L340.511 146.908Z" fill="white"/>
<path d="M314.67 147.786L297.361 137.95L295.928 140.471L313.237 150.308L314.67 147.786Z" fill="white"/>
<path d="M332.271 158.242L321.588 152.171L320.155 154.693L330.838 160.764L332.271 158.242Z" fill="white"/>
<path d="M308.422 161.98L290.647 153.011L289.34 155.601L307.115 164.57L308.422 161.98Z" fill="white"/>
<path d="M326.524 171.553L315.553 166.017L314.247 168.606L325.217 174.142L326.524 171.553Z" fill="white"/>
<path d="M306.849 178.547L287.641 173.311L286.878 176.109L306.086 181.345L306.849 178.547Z" fill="white"/>
<path d="M326.491 184.314L314.636 181.083L313.874 183.881L325.728 187.112L326.491 184.314Z" fill="white"/>
<path d="M307.781 194.225L287.934 192.657L287.706 195.548L307.553 197.117L307.781 194.225Z" fill="white"/>
<path d="M328.14 196.257L315.89 195.288L315.662 198.179L327.911 199.149L328.14 196.257Z" fill="white"/>
<path d="M313.951 212.683L313.39 209.838L293.857 213.688L294.418 216.533L313.951 212.683Z" fill="white"/>
<path d="M334.111 209.116L333.55 206.27L321.495 208.646L322.056 211.492L334.111 209.116Z" fill="white"/>
<path d="M326.692 226.841L325.073 224.436L308.557 235.553L310.176 237.958L326.692 226.841Z" fill="white"/>
<path d="M343.897 215.746L342.278 213.34L332.085 220.201L333.704 222.606L343.897 215.746Z" fill="white"/>
<path d="M342.681 235.789L340.754 233.622L325.873 246.849L327.8 249.017L342.681 235.789Z" fill="white"/>
<path d="M358.24 222.485L356.313 220.317L347.129 228.481L349.056 230.648L358.24 222.485Z" fill="white"/>
<path d="M362.941 243.793L360.853 241.778L347.027 256.102L349.114 258.117L362.941 243.793Z" fill="white"/>
<path d="M377.439 229.34L375.351 227.325L366.818 236.165L368.906 238.18L377.439 229.34Z" fill="white"/>
<path d="M379.612 250.892L377.239 249.224L365.796 265.516L368.169 267.183L379.612 250.892Z" fill="white"/>
<path d="M391.698 234.367L389.325 232.7L382.262 242.755L384.635 244.422L391.698 234.367Z" fill="white"/>
<path d="M392.065 259.089L389.692 257.422L378.975 272.679L381.348 274.347L392.065 259.089Z" fill="white"/>
<path d="M403.383 243.613L401.01 241.946L394.396 251.362L396.769 253.029L403.383 243.613Z" fill="white"/>
<path d="M402.175 269.703L399.801 268.036L389.084 283.293L391.457 284.961L402.175 269.703Z" fill="white"/>
<path d="M413.493 254.227L411.12 252.56L404.505 261.977L406.878 263.644L413.493 254.227Z" fill="white"/>
<path d="M412.767 283.734L410.385 282.08L399.753 297.398L402.136 299.052L412.767 283.734Z" fill="white"/>
<path d="M424.004 268.199L421.621 266.545L415.059 276L417.442 277.653L424.004 268.199Z" fill="white"/>
<path d="M430.492 297.097C430.086 319.565 420.06 341.695 403.442 356.815C387.055 371.723 363.93 379.641 342.12 375.716C325.54 372.719 310.893 363.448 295.889 355.771C280.875 348.105 263.928 341.772 247.454 345.311C236.104 347.738 225.982 354.882 217.513 363.273C215.135 365.624 212.882 368.079 210.775 370.553V312.537C221.892 299.66 237.699 290.901 254.511 288.301C271.333 285.7 289.044 289.267 303.536 298.191C316.626 306.253 327.048 318.395 340.902 325.057C356.051 332.336 374.603 332.094 389.549 324.419C404.495 316.743 415.507 301.805 418.407 285.245C421.308 268.694 414.124 251.65 404.167 238.743C404.176 238.753 404.196 238.762 404.215 238.782C425.349 253.815 430.898 274.659 430.492 297.097Z" fill="#BBE6DD"/>
<path d="M430.492 297.097C430.086 319.565 420.06 341.695 403.442 356.815C387.055 371.723 363.93 379.641 342.12 375.716C325.54 372.719 310.893 363.448 295.889 355.771C280.875 348.105 263.928 341.773 247.454 345.311C236.104 347.738 225.982 354.882 217.513 363.273L213.627 341.154C229.762 303.092 278.661 313.108 295.937 330.337C361.397 379.631 401.266 337.654 406.526 329.341C446.473 277.318 405.955 240.331 404.215 238.784C425.349 253.815 430.898 274.659 430.492 297.097Z" fill="#9FD1C7"/>
<path d="M57.0538 207.666C74.5204 240.942 83.7637 278.496 83.7385 316.077" stroke="#7A3D2C" stroke-miterlimit="10" stroke-linecap="round" stroke-linejoin="round"/>
<path d="M68.6289 233.447C68.6289 233.447 78.3178 191.955 64.3306 190.779C62.8331 190.653 61.3172 191.256 60.4742 192.5C58.4479 195.493 59.9512 199.543 59.9512 199.543C59.9512 199.543 53.0688 188.496 46.7558 193.757C40.4428 199.018 48.0716 207.665 48.0716 207.665C48.0716 207.665 40.1798 202.346 37.2863 208.836C34.3928 215.327 48.6777 230.26 68.6289 233.447Z" fill="#FFA822"/>
<path d="M66.4276 229.6C66.4276 229.6 72.3055 204.131 63.4161 203.385C62.4648 203.305 61.5009 203.687 60.9653 204.479C59.6776 206.382 60.6328 208.955 60.6328 208.955C60.6328 208.955 56.2581 201.934 52.2461 205.278C48.234 208.622 53.0823 214.118 53.0823 214.118C53.0823 214.118 48.0667 210.737 46.2279 214.863C44.3882 218.987 53.7475 227.573 66.4276 229.6Z" fill="white"/>
<path d="M91.8332 350.202L89.3003 361.6C89.3003 361.6 33.2278 327.879 43.7462 237.912C43.7462 237.912 87.5698 281.252 91.8332 350.202Z" fill="#01CBAD"/>
<path d="M89.3003 361.6C89.3003 361.6 33.2278 327.879 43.7462 237.912C43.7462 237.912 59.2532 316.752 89.3003 361.6Z" fill="#01AB92"/>
<path d="M174.668 53.5463C168.853 44.4877 157.681 40.9551 147.958 44.4191L147.636 43.9173L143.295 46.7045C132.742 53.4786 129.68 67.5248 136.453 78.0771C143.228 88.6303 157.274 91.6921 167.826 84.9189L172.168 82.1317L171.846 81.63C179.043 74.2332 180.484 62.6049 174.668 53.5463Z" fill="#FFA822"/>
<path d="M169.605 47.97C169.02 47.5098 168.417 47.0776 167.795 46.6803L133.077 68.9672C133.179 69.6981 133.321 70.426 133.496 71.1501L169.605 47.97Z" fill="#FFC469"/>
<path d="M175.196 54.4087C175.027 54.1186 174.852 53.8305 174.669 53.5463C173.706 52.0459 172.593 50.703 171.367 49.5129L134.164 73.396C134.735 75.0066 135.492 76.5786 136.454 78.078C136.637 78.3632 136.829 78.6407 137.022 78.9152L175.196 54.4087Z" fill="#FFC469"/>
<path d="M178.109 68.3601C178.317 66.5271 178.312 64.6651 178.068 62.8157L143.467 85.0271C145.048 86.02 146.741 86.7963 148.495 87.3706L178.109 68.3601Z" fill="#FFC469"/>
<path d="M177.747 61.0155C177.542 60.0633 177.281 59.1178 176.947 58.1858L139.725 82.0804C140.433 82.7697 141.179 83.4068 141.958 83.9888L177.747 61.0155Z" fill="#FFC469"/>
<path d="M159.902 85.7309C172.442 85.7309 182.608 75.5653 182.608 63.0254C182.608 50.4855 172.442 40.3199 159.902 40.3199C147.362 40.3199 137.197 50.4855 137.197 63.0254C137.197 75.5653 147.362 85.7309 159.902 85.7309Z" fill="#FFC469"/>
<path d="M159.902 81.9992C170.381 81.9992 178.876 73.5043 178.876 63.0254C178.876 52.5465 170.381 44.0516 159.902 44.0516C149.423 44.0516 140.929 52.5465 140.929 63.0254C140.929 73.5043 149.423 81.9992 159.902 81.9992Z" fill="#FFA822"/>
<path d="M172.966 76.7816C172.12 77.5956 171.174 78.3381 170.151 78.9955C161.333 84.6559 149.599 82.0921 143.938 73.2752C138.278 64.4573 140.832 52.7207 149.65 47.0593C150.673 46.4029 151.742 45.8518 152.834 45.4216C146.349 51.5635 144.931 61.6372 149.932 69.4265C154.932 77.2167 164.682 80.1208 172.966 76.7816Z" fill="#FF6B3D"/>
<path d="M156.54 50.4014L168.012 68.2711L163.927 70.893L155.225 57.3379L152.617 60.2382L149.376 57.3795L152.966 52.6955L156.54 50.4014Z" fill="white"/>
<path d="M337.827 66.8279C333.407 59.9416 324.914 57.2569 317.523 59.8903L317.279 59.5094L313.978 61.6276C305.957 66.7776 303.628 77.4546 308.778 85.4768C313.928 93.4981 324.605 95.827 332.626 90.6771L335.926 88.5589L335.682 88.178C341.153 82.5543 342.248 73.7151 337.827 66.8279Z" fill="#FFA822"/>
<path d="M333.978 62.5896C333.533 62.2396 333.075 61.9109 332.602 61.6093L306.211 78.5509C306.288 79.1068 306.396 79.6598 306.529 80.2099L333.978 62.5896Z" fill="#FFC469"/>
<path d="M338.227 67.4843C338.1 67.2638 337.965 67.0454 337.826 66.8288C337.094 65.689 336.248 64.6681 335.316 63.7632L307.036 81.9181C307.47 83.142 308.045 84.337 308.777 85.4777C308.916 85.6943 309.061 85.9051 309.208 86.1139L338.227 67.4843Z" fill="#FFC469"/>
<path d="M340.443 78.0897C340.602 76.6966 340.598 75.2813 340.411 73.8746L314.109 90.7592C315.311 91.5143 316.597 92.104 317.931 92.541L340.443 78.0897Z" fill="#FFC469"/>
<path d="M340.168 72.5066C340.011 71.7825 339.813 71.0633 339.561 70.3556L311.265 88.5202C311.803 89.0442 312.371 89.5275 312.963 89.9713L340.168 72.5066Z" fill="#FFC469"/>
<path d="M326.603 91.2938C336.135 91.2938 343.863 83.5664 343.863 74.0341C343.863 64.5018 336.135 56.7744 326.603 56.7744C317.071 56.7744 309.343 64.5018 309.343 74.0341C309.343 83.5664 317.071 91.2938 326.603 91.2938Z" fill="#FFC469"/>
<path d="M326.603 88.4574C334.569 88.4574 341.026 81.9999 341.026 74.0342C341.026 66.0684 334.569 59.611 326.603 59.611C318.637 59.611 312.18 66.0684 312.18 74.0342C312.18 81.9999 318.637 88.4574 326.603 88.4574Z" fill="#FFA822"/>
<path d="M336.534 84.4916C335.89 85.1103 335.172 85.6749 334.394 86.1738C327.691 90.4769 318.77 88.5279 314.467 81.8253C310.164 75.1217 312.106 66.2004 318.81 61.8973C319.587 61.3984 320.4 60.9798 321.231 60.6521C316.3 65.3206 315.223 72.9784 319.025 78.8998C322.825 84.8213 330.236 87.0294 336.534 84.4916Z" fill="#FF6B3D"/>
<path d="M324.047 64.438L332.767 78.022L329.663 80.0155L323.048 69.7107L321.065 71.915L318.602 69.7426L321.331 66.182L324.047 64.438Z" fill="white"/>
<path d="M230.477 111.845V356.428C230.477 365.661 222.995 373.143 213.762 373.143H100.815C91.5819 373.143 84.0991 365.661 84.0991 356.428V111.845C84.0991 102.613 91.5819 95.1299 100.815 95.1299H213.762C222.995 95.1299 230.477 102.613 230.477 111.845Z" fill="#015287"/>
<path d="M222.85 111.845V356.428C222.85 365.661 215.367 373.143 206.134 373.143H105.648C96.4157 373.143 88.9329 365.661 88.9329 356.428V111.845C88.9329 102.613 96.4157 95.1299 105.648 95.1299H206.134C215.367 95.1299 222.85 102.613 222.85 111.845Z" fill="#0186CB"/>
<path d="M222.743 111.845V350.202H91.8332V111.845C91.8332 106.895 95.8646 102.864 100.814 102.864H213.762C218.712 102.864 222.743 106.895 222.743 111.845Z" fill="#BAE5DC"/>
<path d="M215.448 111.926V350.282H91.7801V111.926C91.7801 106.976 95.8115 102.943 100.761 102.943H206.468C211.427 102.944 215.448 106.976 215.448 111.926Z" fill="#FFFCF9"/>
<path d="M222.743 223.652V239.41L91.8332 339.055V323.297L222.743 223.652Z" fill="#BAE5DC"/>
<path d="M222.743 183.84V189.361L91.8332 289.005V283.485L222.743 183.84Z" fill="#BAE5DC"/>
<path d="M222.743 141.312V153.59L91.8332 253.235V240.957L222.743 141.312Z" fill="#BAE5DC"/>
<path d="M222.743 120.198V125.709L91.8332 225.363V219.843L222.743 120.198Z" fill="#BAE5DC"/>
<path d="M157.288 368.837C161.286 368.837 164.527 365.596 164.527 361.598C164.527 357.6 161.286 354.359 157.288 354.359C153.29 354.359 150.049 357.6 150.049 361.598C150.049 365.596 153.29 368.837 157.288 368.837Z" fill="#015287"/>
<path d="M188.02 259.666C188.02 243.229 176.578 229.475 161.227 225.905V224.997H153.351C134.203 224.997 118.68 240.519 118.68 259.666C118.68 278.813 134.203 294.336 153.351 294.336H161.227V293.426C176.577 289.858 188.02 276.103 188.02 259.666Z" fill="#FFA822"/>
<path d="M186.112 248.323C185.74 247.25 185.323 246.197 184.85 245.173H121.854C121.382 246.197 120.965 247.249 120.592 248.323H186.112Z" fill="#FFC469"/>
<path d="M187.986 261.209C188.008 260.697 188.02 260.182 188.02 259.665C188.02 256.944 187.698 254.298 187.104 251.759H119.599C119.003 254.298 118.679 256.943 118.679 259.665C118.679 260.182 118.696 260.696 118.719 261.209H187.986Z" fill="#FFC469"/>
<path d="M180.222 281.54C182.002 279.356 183.53 276.959 184.742 274.382H121.96C123.17 276.961 124.706 279.355 126.486 281.54H180.222Z" fill="#FFC469"/>
<path d="M185.816 271.804C186.337 270.411 186.782 268.98 187.123 267.508H119.581C119.922 268.979 120.357 270.413 120.877 271.804H185.816Z" fill="#FFC469"/>
<path d="M161.227 294.336C180.375 294.336 195.897 278.814 195.897 259.666C195.897 240.518 180.375 224.996 161.227 224.996C142.079 224.996 126.557 240.518 126.557 259.666C126.557 278.814 142.079 294.336 161.227 294.336Z" fill="#FFC469"/>
<path d="M161.227 288.638C177.228 288.638 190.199 275.667 190.199 259.666C190.199 243.665 177.228 230.694 161.227 230.694C145.226 230.694 132.255 243.665 132.255 259.666C132.255 275.667 145.226 288.638 161.227 288.638Z" fill="#FFA822"/>
<path d="M166.667 288.119C164.907 288.467 163.08 288.641 161.224 288.641C145.224 288.641 132.26 275.667 132.26 259.667C132.26 243.666 145.224 230.692 161.224 230.692C163.08 230.692 164.907 230.867 166.667 231.214C153.267 233.757 143.136 245.533 143.136 259.667C143.135 273.801 153.267 285.577 166.667 288.119Z" fill="#FF6B3D"/>
<path d="M167.32 240.672V273.096H159.909V248.501L154.166 250.076L152.359 243.73L160.835 240.673H167.32V240.672Z" fill="white"/>
<path d="M175.022 190.606L158.331 170.242C157.792 169.583 156.784 169.583 156.244 170.242L139.554 190.606C138.832 191.487 139.458 192.81 140.598 192.81H146.377V204.391C146.377 205.269 147.089 205.98 147.968 205.98H166.611C167.489 205.98 168.2 205.27 168.2 204.391V192.81H173.979C175.117 192.81 175.744 191.487 175.022 190.606Z" fill="#FF6B3D"/>
<path d="M185.537 151.484H129.04C124.024 151.484 119.957 147.416 119.957 142.401C119.957 137.384 124.024 133.318 129.04 133.318H185.537C190.553 133.318 194.62 137.384 194.62 142.401C194.619 147.417 190.553 151.484 185.537 151.484Z" fill="#0186CB"/>
<path d="M142.011 147.606C141.888 148.659 141.499 149.472 140.842 150.047C140.191 150.616 139.323 150.901 138.238 150.901C137.062 150.901 136.119 150.479 135.408 149.636C134.701 148.793 134.348 147.665 134.348 146.253V145.296C134.348 144.37 134.512 143.557 134.84 142.855C135.173 142.153 135.643 141.616 136.249 141.242C136.855 140.864 137.557 140.674 138.354 140.674C139.411 140.674 140.259 140.971 140.897 141.563C141.535 142.151 141.907 142.967 142.011 144.01H140.692C140.578 143.217 140.33 142.643 139.947 142.288C139.569 141.932 139.038 141.755 138.354 141.755C137.516 141.755 136.857 142.064 136.379 142.684C135.905 143.304 135.668 144.186 135.668 145.33V146.294C135.668 147.374 135.893 148.233 136.344 148.871C136.796 149.509 137.427 149.828 138.238 149.828C138.967 149.828 139.525 149.664 139.913 149.336C140.305 149.003 140.564 148.426 140.692 147.606H142.011ZM149.305 148.167H145.135L144.199 150.764H142.845L146.646 140.811H147.795L151.602 150.764H150.255L149.305 148.167ZM145.532 147.087H148.916L147.22 142.431L145.532 147.087ZM155.875 146.328C154.749 146.004 153.929 145.608 153.414 145.138C152.903 144.664 152.648 144.081 152.648 143.388C152.648 142.604 152.96 141.957 153.585 141.447C154.213 140.932 155.029 140.674 156.032 140.674C156.715 140.674 157.324 140.807 157.857 141.071C158.395 141.335 158.809 141.7 159.101 142.165C159.397 142.63 159.546 143.138 159.546 143.689H158.226C158.226 143.088 158.035 142.616 157.652 142.274C157.269 141.928 156.729 141.755 156.032 141.755C155.385 141.755 154.879 141.898 154.514 142.185C154.154 142.468 153.974 142.862 153.974 143.368C153.974 143.773 154.145 144.117 154.487 144.4C154.833 144.678 155.419 144.933 156.244 145.166C157.073 145.398 157.72 145.656 158.185 145.938C158.655 146.216 159.001 146.542 159.224 146.916C159.452 147.289 159.566 147.729 159.566 148.235C159.566 149.042 159.252 149.689 158.623 150.176C157.994 150.659 157.153 150.901 156.1 150.901C155.417 150.901 154.779 150.771 154.186 150.511C153.594 150.247 153.136 149.887 152.812 149.431C152.493 148.976 152.334 148.458 152.334 147.88H153.653C153.653 148.481 153.874 148.957 154.316 149.308C154.763 149.655 155.357 149.828 156.1 149.828C156.793 149.828 157.324 149.686 157.693 149.404C158.062 149.121 158.247 148.736 158.247 148.249C158.247 147.761 158.076 147.385 157.734 147.121C157.392 146.852 156.772 146.588 155.875 146.328ZM168.904 150.764H167.585V146.164H162.567V150.764H161.254V140.811H162.567V145.09H167.585V140.811H168.904V150.764ZM171.235 150.764V140.811H174.489C175.569 140.811 176.38 141.034 176.922 141.481C177.469 141.928 177.743 142.589 177.743 143.464C177.743 143.928 177.611 144.341 177.346 144.701C177.082 145.056 176.722 145.332 176.266 145.528C176.804 145.678 177.228 145.965 177.538 146.389C177.852 146.809 178.009 147.31 178.009 147.893C178.009 148.786 177.72 149.488 177.141 149.999C176.562 150.509 175.744 150.764 174.687 150.764H171.235ZM172.547 146.109V149.691H174.714C175.325 149.691 175.806 149.534 176.157 149.219C176.512 148.9 176.69 148.463 176.69 147.907C176.69 146.708 176.038 146.109 174.735 146.109H172.547ZM172.547 145.056H174.53C175.104 145.056 175.562 144.913 175.904 144.626C176.25 144.339 176.423 143.949 176.423 143.457C176.423 142.91 176.264 142.513 175.945 142.267C175.626 142.017 175.141 141.891 174.489 141.891H172.547V145.056ZM185.454 148.167H181.284L180.347 150.764H178.994L182.795 140.811H183.943L187.751 150.764H186.404L185.454 148.167ZM181.68 147.087H185.064L183.369 142.431L181.68 147.087ZM142.011 163.606C141.888 164.659 141.499 165.472 140.842 166.047C140.191 166.616 139.323 166.901 138.238 166.901C137.062 166.901 136.119 166.479 135.408 165.636C134.701 164.793 134.348 163.665 134.348 162.253V161.296C134.348 160.37 134.512 159.557 134.84 158.855C135.173 158.153 135.643 157.616 136.249 157.242C136.855 156.864 137.557 156.674 138.354 156.674C139.411 156.674 140.259 156.971 140.897 157.563C141.535 158.151 141.907 158.967 142.011 160.01H140.692C140.578 159.217 140.33 158.643 139.947 158.288C139.569 157.932 139.038 157.755 138.354 157.755C137.516 157.755 136.857 158.064 136.379 158.684C135.905 159.304 135.668 160.186 135.668 161.33V162.294C135.668 163.374 135.893 164.233 136.344 164.871C136.796 165.509 137.427 165.828 138.238 165.828C138.967 165.828 139.525 165.664 139.913 165.336C140.305 165.003 140.564 164.426 140.692 163.606H142.011ZM146.338 162.136L145.122 163.401V166.764H143.809V156.811H145.122V161.733L149.545 156.811H151.13L147.213 161.207L151.438 166.764H149.866L146.338 162.136Z" fill="#FFFCF9"/>
<path d="M203.014 250.509C205.553 256.589 205.379 263.744 202.549 269.694" stroke="#015287" stroke-miterlimit="10" stroke-linecap="round" stroke-linejoin="round"/>
<path d="M211.835 250.892C214.374 256.972 214.2 264.127 211.37 270.077" stroke="#015287" stroke-miterlimit="10" stroke-linecap="round" stroke-linejoin="round"/>
<path d="M112.294 268.901C109.357 263.003 109.054 255.852 111.484 249.728" stroke="#015287" stroke-miterlimit="10" stroke-linecap="round" stroke-linejoin="round"/>
<path d="M103.467 269.106C100.529 263.208 100.228 256.056 102.656 249.932" stroke="#015287" stroke-miterlimit="10" stroke-linecap="round" stroke-linejoin="round"/>
<path d="M74.0592 175.856L76.0952 180.667C76.887 182.539 84.4906 181.111 93.0765 177.478C101.662 173.845 107.981 169.381 107.189 167.51L105.153 162.699L74.0592 175.856Z" fill="#FFA822"/>
<path d="M89.3003 169.407L92.7691 177.605C92.8715 177.562 92.9731 177.521 93.0755 177.477C94.633 176.818 96.116 176.131 97.4946 175.438L94.0858 167.382L89.3003 169.407Z" fill="#FFC469"/>
<path d="M79.5446 173.535L82.6721 180.926C83.6437 180.712 84.6898 180.442 85.8006 180.112L82.4904 172.289L79.5446 173.535Z" fill="#FFC469"/>
<path d="M83.4098 171.9L86.7596 179.817C87.7361 179.508 88.7483 179.165 89.7934 178.779L86.3546 170.654L83.4098 171.9Z" fill="#FFC469"/>
<path d="M95.0062 166.993L98.3869 174.981C99.4552 174.423 100.458 173.863 101.37 173.312L98.1356 165.668L95.0062 166.993Z" fill="#FFC469"/>
<path d="M91.0356 172.658C99.6216 169.025 105.94 164.562 105.148 162.69C104.356 160.818 96.753 162.246 88.167 165.88C79.581 169.513 73.2628 173.976 74.0549 175.848C74.8471 177.72 82.4496 176.292 91.0356 172.658Z" fill="#FFC469"/>
<path d="M90.3396 171.01C83.4108 173.943 78.4338 174.899 76.3398 174.892C77.7919 173.384 81.9442 170.478 88.874 167.546C95.8028 164.613 100.78 163.657 102.874 163.664C101.421 165.171 97.2694 168.077 90.3396 171.01Z" fill="#FFA822"/>
<path d="M102.761 163.776C101.212 165.317 97.0992 168.151 90.3396 171.011C83.5751 173.874 78.6746 174.848 76.4984 174.889C80.2349 173.595 84.6975 171.895 89.8001 169.735C94.9027 167.576 99.23 165.557 102.761 163.776Z" fill="#FF6B3D"/>
<path d="M381.805 209.167L382.293 214.368C382.482 216.391 390.161 217.328 399.444 216.457C408.727 215.588 416.099 213.243 415.909 211.219L415.422 206.018L381.805 209.167Z" fill="#FFA822"/>
<path d="M398.282 207.624L399.113 216.487C399.223 216.478 399.333 216.469 399.443 216.458C401.127 216.301 402.748 216.094 404.272 215.85L403.456 207.14L398.282 207.624Z" fill="#FFC469"/>
<path d="M387.735 208.612L388.483 216.602C389.474 216.691 390.553 216.749 391.71 216.771L390.918 208.314L387.735 208.612Z" fill="#FFC469"/>
<path d="M391.914 208.22L392.715 216.78C393.74 216.781 394.808 216.76 395.92 216.708L395.098 207.923L391.914 208.22Z" fill="#FFC469"/>
<path d="M404.451 207.046L405.26 215.683C406.448 215.473 407.572 215.243 408.608 214.994L407.834 206.729L404.451 207.046Z" fill="#FFC469"/>
<path d="M398.95 211.23C408.233 210.36 415.604 208.014 415.414 205.99C415.224 203.967 407.546 203.031 398.263 203.901C388.981 204.771 381.61 207.117 381.799 209.14C381.989 211.164 389.668 212.1 398.95 211.23Z" fill="#FFC469"/>
<path d="M398.789 209.466C391.297 210.168 386.264 209.576 384.271 208.936C386.111 207.938 390.946 206.421 398.438 205.719C405.929 205.017 410.962 205.61 412.956 206.249C411.116 207.248 406.28 208.764 398.789 209.466Z" fill="#FFA822"/>
<path d="M412.815 206.323C410.872 207.323 406.095 208.783 398.788 209.468C391.474 210.153 386.508 209.6 384.421 208.982C388.374 208.878 393.142 208.605 398.658 208.088C404.175 207.572 408.911 206.953 412.815 206.323Z" fill="#FF6B3D"/>
<path d="M31.4925 95.2933L29.3018 103.061C28.45 106.084 38.9984 111.703 52.8638 115.613C66.7282 119.522 78.6591 120.241 79.5118 117.219L81.7025 109.451L31.4925 95.2933Z" fill="#FFA822"/>
<path d="M56.1034 102.233L52.3708 115.472C52.5351 115.519 52.6985 115.566 52.8638 115.613C55.3793 116.322 57.8301 116.925 60.1629 117.421L63.8308 104.411L56.1034 102.233Z" fill="#FFC469"/>
<path d="M40.35 97.7905L36.9856 109.724C38.3642 110.404 39.8859 111.088 41.5439 111.763L45.1055 99.1305L40.35 97.7905Z" fill="#FFC469"/>
<path d="M46.5924 99.5509L42.9873 112.334C44.4626 112.906 46.0152 113.468 47.6481 114.012L51.3479 100.891L46.5924 99.5509Z" fill="#FFC469"/>
<path d="M65.3177 104.83L61.6807 117.73C63.5099 118.09 65.2578 118.382 66.8906 118.599L70.371 106.255L65.3177 104.83Z" fill="#FFC469"/>
<path d="M55.052 107.85C68.9172 111.76 80.8482 112.479 81.7006 109.456C82.5529 106.433 72.0039 100.813 58.1386 96.9039C44.2734 92.9942 32.3424 92.2753 31.4901 95.2981C30.6377 98.3209 41.1867 103.941 55.052 107.85Z" fill="#FFC469"/>
<path d="M55.8086 105.17C44.6192 102.014 37.6933 98.3619 35.1749 96.3317C38.3826 95.915 46.197 96.4187 57.3863 99.5742C68.5757 102.729 75.5016 106.381 78.0201 108.412C74.8123 108.828 66.9979 108.324 55.8086 105.17Z" fill="#FFA822"/>
<path d="M77.7764 108.439C74.4208 108.802 66.7215 108.249 55.8076 105.172C44.8841 102.092 38.0336 98.5329 35.3672 96.4824C41.1243 98.5291 48.1489 100.789 56.3877 103.113C64.6274 105.435 71.798 107.177 77.7764 108.439Z" fill="#FF6B3D"/>
<path d="M398.9 145.191L400.97 152.992C401.775 156.028 413.716 155.493 427.639 151.798C441.562 148.103 452.197 142.647 451.391 139.611L449.321 131.81L398.9 145.191Z" fill="#FFA822"/>
<path d="M423.614 138.633L427.142 151.927C427.307 151.883 427.473 151.842 427.639 151.798C430.165 151.127 432.582 150.398 434.842 149.637L431.376 136.572L423.614 138.633Z" fill="#FFC469"/>
<path d="M407.794 142.831L410.975 154.815C412.507 154.698 414.166 154.513 415.936 154.25L412.57 141.564L407.794 142.831Z" fill="#FFC469"/>
<path d="M414.063 141.167L417.47 154.005C419.031 153.745 420.653 153.44 422.335 153.076L418.838 139.9L414.063 141.167Z" fill="#FFC469"/>
<path d="M432.867 136.177L436.305 149.131C438.062 148.508 439.715 147.87 441.232 147.226L437.942 134.83L432.867 136.177Z" fill="#FFC469"/>
<path d="M425.549 143.997C439.472 140.302 450.105 134.846 449.3 131.811C448.494 128.776 436.555 129.31 422.632 133.005C408.709 136.7 398.075 142.156 398.881 145.192C399.686 148.227 411.626 147.692 425.549 143.997Z" fill="#FFC469"/>
<path d="M424.856 141.309C413.619 144.292 405.799 144.675 402.597 144.21C405.146 142.218 412.127 138.673 423.364 135.691C434.601 132.709 442.422 132.325 445.623 132.79C443.074 134.783 436.092 138.328 424.856 141.309Z" fill="#FFA822"/>
<path d="M445.427 132.939C442.724 134.961 435.817 138.404 424.856 141.313C413.887 144.224 406.178 144.651 402.839 144.243C408.836 143.073 416.033 141.441 424.307 139.245C432.581 137.048 439.639 134.897 445.427 132.939Z" fill="#FF6B3D"/>
<path d="M391.695 330.332L387.898 337.454C386.421 340.226 395.53 347.965 408.242 354.74C420.955 361.516 432.457 364.761 433.935 361.99L437.731 354.867L391.695 330.332Z" fill="#FFA822"/>
<path d="M414.26 342.357L407.791 354.496C407.942 354.577 408.091 354.66 408.243 354.74C410.549 355.97 412.815 357.081 414.989 358.063L421.346 346.135L414.26 342.357Z" fill="#FFC469"/>
<path d="M399.816 334.659L393.985 345.601C395.186 346.559 396.528 347.553 398.004 348.565L404.177 336.983L399.816 334.659Z" fill="#FFC469"/>
<path d="M405.539 337.709L399.291 349.43C400.611 350.303 402.008 351.184 403.487 352.064L409.899 340.033L405.539 337.709Z" fill="#FFC469"/>
<path d="M422.708 346.86L416.405 358.687C418.115 359.428 419.761 360.085 421.309 360.646L427.341 349.329L422.708 346.86Z" fill="#FFC469"/>
<path d="M412.054 347.609C424.767 354.384 436.27 357.629 437.747 354.858C439.224 352.086 430.115 344.347 417.402 337.572C404.69 330.797 393.186 327.552 391.709 330.324C390.232 333.095 399.341 340.834 412.054 347.609Z" fill="#FFC469"/>
<path d="M413.345 345.164C403.086 339.696 397.098 334.65 395.07 332.13C398.294 332.408 405.821 334.566 416.08 340.033C426.34 345.501 432.329 350.547 434.355 353.067C431.132 352.79 423.606 350.633 413.345 345.164Z" fill="#FFA822"/>
<path d="M434.111 353.042C430.755 352.682 423.351 350.5 413.344 345.167C403.329 339.829 397.394 334.891 395.227 332.32C400.415 335.547 406.796 339.252 414.351 343.278C421.905 347.303 428.54 350.534 434.111 353.042Z" fill="#FF6B3D"/>
<path d="M37.2273 355.198L39.3997 362.972C40.2456 365.996 52.1774 365.305 66.0505 361.426C79.9246 357.548 90.4856 351.953 89.6406 348.929L87.4673 341.155L37.2273 355.198Z" fill="#FFA822"/>
<path d="M61.8528 348.316L65.5555 361.562C65.7208 361.517 65.8842 361.472 66.0505 361.426C68.568 360.722 70.9743 359.962 73.2239 359.172L69.585 346.153L61.8528 348.316Z" fill="#FFC469"/>
<path d="M46.0897 352.721L49.4279 364.664C50.9593 364.526 52.6144 364.32 54.3826 364.032L50.8491 351.392L46.0897 352.721Z" fill="#FFC469"/>
<path d="M52.336 350.975L55.9111 363.766C57.4685 363.487 59.0869 363.159 60.7642 362.775L57.0944 349.645L52.336 350.975Z" fill="#FFC469"/>
<path d="M71.0729 345.738L74.6809 358.646C76.4297 358.001 78.0742 357.34 79.5814 356.677L76.1291 344.326L71.0729 345.738Z" fill="#FFC469"/>
<path d="M63.8833 353.659C77.7572 349.781 88.3189 344.185 87.4734 341.16C86.628 338.135 74.6956 338.827 60.8217 342.705C46.9478 346.583 36.3862 352.179 37.2316 355.203C38.0771 358.228 50.0094 357.536 63.8833 353.659Z" fill="#FFC469"/>
<path d="M63.1299 350.976C51.9328 354.106 44.1175 354.592 40.9107 354.168C43.433 352.143 50.3676 348.508 61.5647 345.378C72.7618 342.248 80.5772 341.762 83.7839 342.185C81.2616 344.211 74.327 347.848 63.1299 350.976Z" fill="#FFA822"/>
<path d="M83.5896 342.336C80.9126 344.393 74.0515 347.927 63.1299 350.979C52.1996 354.034 44.4974 354.561 41.1543 354.197C47.1348 352.948 54.3091 351.223 62.5537 348.918C70.7983 346.613 77.8286 344.369 83.5896 342.336Z" fill="#FF6B3D"/>
<path d="M269.748 29.2825C264.331 26.1163 255.118 26.0902 245.901 29.7774C236.684 33.4647 230.032 39.8376 228.292 45.8673L226.259 46.6804L228.454 52.1658C231.389 59.5017 243.958 61.3714 256.529 56.3432C269.1 51.3141 276.911 41.2907 273.976 33.9548L271.782 28.4694L269.748 29.2825Z" fill="#FFA822"/>
<path d="M251.384 28.0188L261.712 53.8353C264.126 52.4509 266.275 50.8857 268.089 49.2123L259.191 26.9698C256.723 27.0085 254.087 27.3566 251.384 28.0188Z" fill="#FFC469"/>
<path d="M230.673 41.0547L237.722 58.675C240.865 59.3159 244.537 59.3333 248.435 58.6576L238.446 33.6918C235.164 35.8883 232.507 38.428 230.673 41.0547Z" fill="#FFC469"/>
<path d="M245.901 29.7774C244.416 30.372 243.006 31.0419 241.664 31.7631L252.094 57.8349C253.563 57.4318 255.046 56.9368 256.53 56.3442C257.612 55.9111 258.654 55.4383 259.66 54.9365L249.139 28.6376C248.064 28.9682 246.983 29.3452 245.901 29.7774Z" fill="#FFC469"/>
<path d="M261.712 27.0404L269.866 47.4237C271.035 46.135 272.015 44.8048 272.77 43.4638L266.546 27.9095C265.076 27.4571 263.448 27.169 261.712 27.0404Z" fill="#FFC469"/>
<path d="M254.342 50.8688C266.913 45.8402 274.725 35.8167 271.791 28.4805C268.856 21.1443 256.286 19.2736 243.715 24.3021C231.144 29.3307 223.331 39.3542 226.266 46.6904C229.2 54.0266 241.77 55.8973 254.342 50.8688Z" fill="#FFC469"/>
<path d="M252.953 47.4045C241.574 51.956 231.573 49.9481 229.712 45.2989C227.852 40.6497 233.709 32.2968 245.087 27.7453C256.466 23.1928 266.468 25.2007 268.328 29.8509C270.189 34.5001 264.332 42.852 252.953 47.4045Z" fill="#FFA822"/>
<path d="M268.328 29.8538C270.184 34.4991 264.329 42.851 252.948 47.4025C241.579 51.957 231.57 49.9471 229.714 45.3017C229.188 43.9869 229.278 42.3811 229.935 40.641C233.382 43.9328 242.142 44.8677 251.926 40.9513C260.081 37.6875 265.413 32.4689 267.074 28.0604C267.645 28.5941 268.069 29.2031 268.328 29.8538Z" fill="#FF6B3D"/>
<path d="M236.954 37.4158L257.116 29.6237L258.896 34.2322L243.602 40.1431L245.962 43.3353L242.45 45.9843L238.511 41.4472L236.954 37.4158Z" fill="white"/>
<path d="M271.826 358.265L270.966 367.7L270.531 372.447C270.531 372.447 250.557 374.545 251.041 372.447C251.524 370.349 261.424 365.032 261.424 365.032V358.265H271.826Z" fill="#FED3CD"/>
<path d="M270.966 367.7L270.531 372.447C270.531 372.447 250.557 374.545 251.041 372.447C251.524 370.349 261.424 365.032 261.424 365.032C261.424 365.032 260.834 369.015 270.966 367.7Z" fill="#2B2B3B"/>
<path d="M261.374 230.529L258.624 355.857H274.594L301.148 226.536L261.374 230.529Z" fill="#2B2B3B"/>
<path d="M267.243 237.558C266.551 239.834 282.634 298.044 286.779 296.516C287.778 296.148 283.581 233.614 283.581 233.614L267.243 237.558Z" fill="#14141C"/>
<path d="M276.335 353.917H256.355V360.363H276.335V353.917Z" fill="#43434D"/>
<path d="M292.549 222.901L307.916 224.892C307.916 224.892 321.738 235.721 310.102 278.717L334.954 266.489L342.054 277.337L305.519 304.289C300.153 308.248 292.515 306.834 289.011 301.161C287.837 299.259 286.748 296.823 285.842 293.708C280.911 276.746 271.825 232.961 271.825 232.961L292.549 222.901Z" fill="#2B2B3B"/>
<path d="M360.1 212.43C360.1 212.43 358.448 216.29 357.597 215.731C356.745 215.172 358.049 213.415 358.049 213.415L353.869 214.108L355.226 211.338C355.226 211.338 357.143 210.54 357.223 210.54C357.304 210.54 360.1 212.43 360.1 212.43Z" fill="#FEAEA3"/>
<path d="M355.163 244.762C354.972 244.762 354.789 244.646 354.715 244.457C354.284 243.374 344.276 217.855 354.96 212.896C365.632 207.934 379.184 232.135 379.755 233.17C379.885 233.402 379.8 233.697 379.567 233.827C379.334 233.956 379.039 233.873 378.909 233.639C378.774 233.393 365.23 209.2 355.366 213.772C345.505 218.351 355.509 243.844 355.612 244.101C355.71 244.348 355.59 244.63 355.342 244.728C355.284 244.751 355.223 244.762 355.163 244.762Z" fill="#2B2B3B"/>
<path d="M346.082 243.554L381.488 229.052L405.826 281.741L357.317 300.593L346.082 243.554Z" fill="#FF6B3D"/>
<path d="M381.488 229.052H386.941L417.52 277.632L405.826 281.741L381.488 229.052Z" fill="#D65A33"/>
<path d="M405.826 281.741V268.931L417.52 277.632L405.826 281.741Z" fill="#B04A2A"/>
<path d="M353.23 244.762C353.038 244.762 352.856 244.646 352.781 244.457C352.35 243.374 342.342 217.855 353.027 212.896C363.703 207.934 377.25 232.135 377.821 233.17C377.951 233.402 377.867 233.697 377.633 233.827C377.401 233.956 377.105 233.873 376.976 233.639C376.84 233.393 363.299 209.2 353.433 213.772C343.572 218.351 353.576 243.844 353.678 244.101C353.777 244.348 353.656 244.63 353.409 244.728C353.351 244.751 353.29 244.762 353.23 244.762Z" fill="#2B2B3B"/>
<path d="M333.183 205.402H336.534C336.534 205.402 345.187 210.39 351.856 211.206L357.724 209.783C357.724 209.783 361.904 212.733 361.192 213.355C360.48 213.976 357.546 211.582 357.546 211.582C357.546 211.582 353.723 217.163 349.277 216.77C349.277 216.77 335.317 215.937 327.936 211.4L333.183 205.402Z" fill="#FED3CD"/>
<path d="M348.865 215.904C349.428 216.663 350.121 217.341 350.952 217.792C351.783 218.245 352.787 218.562 353.691 218.283C354.831 217.932 355.02 217.289 355.434 216.439C355.434 216.439 358.262 216.104 357.862 215.066C357.463 214.028 352.085 214.826 352.085 214.826L348.865 215.904Z" fill="#FED3CD"/>
<path d="M179.893 145.321C179.893 145.321 178.526 146.057 179.079 147.591C179.417 148.574 183.085 151.251 183.621 150.568C184.157 149.886 183.467 147.999 183.467 147.999L179.893 145.321Z" fill="#E88E82"/>
<path d="M180.853 143.678C180.853 143.678 178.459 145.151 180.485 147.023C182.572 148.926 184.106 150 184.873 149.386C185.64 148.772 187.013 144.445 187.013 144.445L180.853 143.678Z" fill="#FEAEA3"/>
<path d="M211.206 162.309L208.572 155.598C208.572 155.598 197.38 151.485 185.968 142.402C185.968 142.402 182.636 140.844 176.96 143.057C176.96 143.057 175.806 144.501 181.289 144.116L182.539 143.924L185.618 147.868L186.485 151.435C186.485 151.435 197.643 163.452 206.974 166.435L211.206 162.309Z" fill="#FED3CD"/>
<path d="M188.513 152.036C187.259 152.405 185.852 152.224 184.732 151.55C183.611 150.876 182.794 149.717 182.534 148.436C182.534 148.436 179.971 146.057 180.371 145.535C180.77 145.013 186.907 147.868 186.907 147.868L188.513 152.036Z" fill="#FED3CD"/>
<path d="M260.31 120.954C260.31 120.954 248.782 127.426 253.293 150.95L253.938 153.689C250.353 154.717 247.376 157.393 245.364 160.532C243.351 163.671 242.518 167.544 243.047 171.235C243.751 176.145 246.914 180.64 251.299 182.961C255.683 185.281 261.179 185.368 265.635 183.188V121.43L260.31 120.954Z" fill="#14141C"/>
<path d="M267.243 165.82L261.907 181.433L259.132 189.564L258.62 191.062C258.253 191.082 257.885 191.091 257.508 191.101C253.158 191.14 248.498 190.269 243.78 188.829C223.884 182.738 203.302 166.477 203.302 166.477C203.302 160.329 208.57 155.601 208.57 155.601C235.563 173.245 267.243 165.82 267.243 165.82Z" fill="#FF6B3D"/>
<path d="M262.39 167.396L261.907 181.433L259.132 189.564L257.508 191.101C253.158 191.14 248.498 190.269 243.78 188.829C243.036 185.967 242.765 182.816 244.35 181.085C247.734 177.402 257.943 171.418 262.39 167.396Z" fill="#D65A33"/>
<path d="M277.112 155.597C277.112 155.597 262.967 152.599 262.388 155.597C261.809 158.594 262.388 167.4 262.388 167.4L253.522 176.032C253.522 176.032 244.397 181.039 247.665 190.189C249.724 195.714 254.212 195.369 255.767 202.965C257.322 210.561 258.625 238.186 258.625 238.186C258.625 238.186 284.794 246.646 307.918 224.892C307.918 224.892 291.851 204.692 289.089 175.342L281.665 155.597H277.112Z" fill="#FF6B3D"/>
<path d="M292.772 194.078C292.772 194.078 278.755 190.259 274.39 163.561L287.693 179.249L292.772 194.078Z" fill="#D65A33"/>
<path d="M272.77 155.597C272.77 155.597 290.353 154.061 290.353 154.815C290.353 155.568 306.985 192.073 336.535 205.402C336.535 205.402 331.756 213.575 325.717 213.897C325.717 213.897 279.033 200.098 272.77 155.597Z" fill="#FF6B3D"/>
<path d="M264.098 123.1C264.098 123.1 256.661 123.769 253.984 130.313C252.125 135.147 252.125 135.445 252.125 135.445C252.125 135.445 247.664 138.42 247.664 140.279C247.738 141.394 250.489 141.171 250.489 141.171C250.489 141.171 248.258 152.921 254.357 153.887C260.454 154.854 263.205 155.077 263.205 155.077L277.111 155.598L267.816 123.101H264.098V123.1Z" fill="#FED3CD"/>
<path d="M260.31 120.954C258.079 127.105 258.061 134.034 260.263 140.195C262.464 146.357 266.866 151.706 272.49 155.05C270.224 162.085 272.185 170.4 276.961 176.04C281.739 181.679 289.518 184.612 296.829 183.532C300.209 183.032 303.607 181.624 305.714 178.933C308.756 175.049 308.397 169.324 306.162 164.925C303.927 160.526 300.147 157.147 296.474 153.853C292.8 150.559 288.832 149.7 287.186 143.516C287.186 143.516 291.319 127.425 278.428 121.624C267.956 117.436 260.31 120.954 260.31 120.954Z" fill="#2B2B3B"/>
<path d="M336.15 267.24L344.744 263.252L349.07 261.249C349.07 261.249 360.901 277.477 358.844 278.11C356.786 278.744 347.221 272.846 347.221 272.846L341.367 276.239L336.15 267.24Z" fill="#FED3CD"/>
<path d="M344.744 263.252L349.07 261.249C349.07 261.249 360.901 277.477 358.844 278.11C356.786 278.744 347.221 272.846 347.221 272.846C347.221 272.846 350.963 271.359 344.744 263.252Z" fill="#2B2B3B"/>
<path d="M330.13 265.503L340.15 282.789L345.726 279.556L335.707 262.27L330.13 265.503Z" fill="#43434D"/>
<path d="M80.6207 278.112C80.6207 278.112 80.6014 277.89 80.553 277.484C79.9826 271.664 76.0382 227.464 88.0648 227.957C88.1325 227.957 88.2098 227.967 88.2775 227.967C100.865 228.913 93.6228 267.555 80.6207 278.112Z" fill="#FF6B3D"/>
<path d="M80.6207 278.112C80.6207 278.112 80.6013 277.89 80.553 277.484C87.7554 262.113 90.9264 244.613 88.2775 227.966C100.865 228.913 93.6227 267.555 80.6207 278.112Z" fill="#FFA822"/>
<path d="M80.6207 278.112C80.6207 278.112 40.0261 270.407 45.9911 256.224C46.1361 255.885 46.3004 255.548 46.4938 255.199C54.1119 241.77 75.8739 271.382 79.9536 277.154C80.3877 277.764 80.6207 278.112 80.6207 278.112Z" fill="#FF6B3D"/>
<path d="M79.9526 277.155C75.4572 272.021 70.6523 267.12 65.0258 263.273C59.3702 259.406 52.7962 256.65 45.9901 256.225C46.1351 255.886 46.2995 255.549 46.4928 255.2C54.111 241.771 75.8729 271.383 79.9526 277.155Z" fill="#FFA822"/>
</svg>
