<svg width="28" height="28" viewBox="0 0 28 28" fill="none" xmlns="http://www.w3.org/2000/svg">
<path d="M14 0C6.28037 0 0 6.28037 0 14C0 21.7196 6.28037 28 14 28C21.7196 28 28 21.7196 28 14C28 6.28037 21.7196 0 14 0ZM14 26.3594C7.18501 26.3594 1.64062 20.815 1.64062 14C1.64062 7.18501 7.18501 1.64062 14 1.64062C20.815 1.64062 26.3594 7.18501 26.3594 14C26.3594 20.815 20.815 26.3594 14 26.3594Z" fill="#181919"/>
<path d="M14 14.7656C17.1662 14.7656 19.7422 12.1897 19.7422 9.02344C19.7422 5.8572 17.1662 3.28125 14 3.28125C10.8338 3.28125 8.25781 5.8572 8.25781 9.02344C8.25781 12.1897 10.8338 14.7656 14 14.7656ZM14 4.92188C16.2616 4.92188 18.1016 6.76184 18.1016 9.02344C18.1016 11.285 16.2616 13.125 14 13.125C11.7384 13.125 9.89844 11.285 9.89844 9.02344C9.89844 6.76184 11.7384 4.92188 14 4.92188Z" fill="#181919"/>
<path d="M23.223 18.3445C22.1329 17.1127 20.5652 16.4062 18.9219 16.4062H9.07813C7.43482 16.4062 5.8671 17.1127 4.77701 18.3445L4.38818 18.784L4.67836 19.2939C6.58241 22.6401 10.1543 24.7188 14 24.7188C17.8457 24.7188 21.4176 22.6401 23.3217 19.2939L23.6119 18.7839L23.223 18.3445ZM14 23.0781C10.9519 23.0781 8.10682 21.5361 6.43218 19.0151C7.16784 18.3943 8.10447 18.0469 9.07813 18.0469H18.9219C19.8955 18.0469 20.8322 18.3943 21.5678 19.0151C19.8932 21.5361 17.0481 23.0781 14 23.0781Z" fill="#181919"/>
</svg>
