<svg width="201" height="28" viewBox="0 0 201 28" fill="none" xmlns="http://www.w3.org/2000/svg">
<path fill-rule="evenodd" clip-rule="evenodd" d="M18.5299 0.20166C9.69834 0.20166 2.47674 9.09926 0.0721417 21.1609C0.0514417 21.284 0.0231414 21.5808 0.00244141 21.7001C0.229741 21.7001 0.984341 21.7763 1.25054 21.0848C5.86054 11.3873 11.501 5.38916 18.5199 5.38916C25.6394 5.38916 31.5815 12.5491 35.1676 21.7001C35.9097 20.9799 37.0545 19.8578 37.0545 18.7683C34.1525 8.05696 26.8457 0.20166 18.5299 0.20166Z" fill="#202020"/>
<path fill-rule="evenodd" clip-rule="evenodd" d="M159.343 0.20166C150.51 0.20166 143.285 9.09926 140.882 21.1609C140.86 21.284 140.836 21.5808 140.814 21.7001C141.035 21.7001 141.794 21.7763 142.057 21.0848C146.67 11.3873 152.311 5.38916 159.333 5.38916C166.45 5.38916 172.392 12.5491 175.976 21.7001C176.722 20.9799 177.866 19.8578 177.866 18.7683C174.962 8.05696 167.662 0.20166 159.343 0.20166Z" fill="#202020"/>
<path fill-rule="evenodd" clip-rule="evenodd" d="M40.1018 0.20166C39.129 0.20166 38.1063 0.712161 38.1063 1.94286C38.1063 2.52206 39.3015 4.56366 40.1561 6.58356C41.0122 4.53476 42.1533 2.64866 42.1533 1.94286C42.1533 0.712161 41.1849 0.20166 40.1018 0.20166Z" fill="#202020"/>
<path fill-rule="evenodd" clip-rule="evenodd" d="M56.3278 0.712158C49.8419 0.712158 46.0048 2.30846 43.7541 3.78546L46.2292 5.01246C48.2946 3.65886 50.7324 2.36276 55.4916 2.36276C64.9604 2.36276 66.6245 8.03886 66.9188 10.2687L66.8963 10.1962C66.8084 10.2253 66.7151 10.2505 66.6245 10.2794C65.573 10.5981 64.2654 10.9961 62.0953 10.9961C61.1361 10.9961 60.5178 10.7645 59.7378 10.4712C58.7523 10.0986 57.5306 9.64256 55.4547 9.64256C53.7024 9.64256 52.1994 10.0008 51.0663 10.3265V12.6071C52.1224 12.2886 53.6744 11.8288 55.4547 11.8288C57.1369 11.8288 58.0237 12.1653 58.9658 12.5202C59.8356 12.8461 60.7404 13.1863 62.0953 13.1863C64.3794 13.1863 65.8634 12.7916 66.9678 12.4624C66.9606 12.8643 66.9531 13.1937 66.9432 13.2984C66.726 15.2425 65.2543 20.5491 55.4916 20.5491C50.1705 20.5491 48.0807 19.5319 46.0175 18.0297L43.6637 19.4559C46.1903 21.0233 49.1378 22.1999 56.3278 22.1999C65.7685 22.1999 72.2617 18.0078 72.2617 11.981C72.2617 5.95356 65.7685 0.712158 56.3278 0.712158Z" fill="#202020"/>
<path fill-rule="evenodd" clip-rule="evenodd" d="M73.5059 6.55453V7.52463H79.678V21.7H84.0635V7.52463H90.0413V5.58093H73.5059V6.55453Z" fill="#202020"/>
<path fill-rule="evenodd" clip-rule="evenodd" d="M116.08 5.58093H114.6L105.509 18.243L105.505 18.2467L97.2062 5.58093H92.5153L103.095 21.6313L98.5538 27.9735H101.498L117.55 5.58093H116.08Z" fill="#202020"/>
<path fill-rule="evenodd" clip-rule="evenodd" d="M133.899 19.7527H126.273C122.962 19.7527 121.842 18.6706 121.842 17.0343C121.842 15.4161 123.207 14.095 126.66 14.095H133.899V19.7527ZM128.195 5.29858C122.392 5.29858 118.381 6.51478 118.246 9.27678H118.238V9.85228H122.83C122.83 8.32478 123.677 7.25318 128.476 7.25318C133.418 7.25318 133.899 8.26318 133.899 9.85228V12.1222H126.897C120.414 12.1222 117.173 14.2938 117.173 17.237C117.173 19.7781 119.882 21.6894 125.172 21.6894H138.293V9.68588C138.293 6.36638 135.831 5.29858 128.195 5.29858Z" fill="#202020"/>
<path fill-rule="evenodd" clip-rule="evenodd" d="M191.497 19.7526H184.67V14.0949H191.136C194.38 14.0949 195.659 15.2133 195.659 16.8315C195.659 18.7029 194.604 19.7526 191.497 19.7526ZM191.265 12.1221H184.67V5.58093H180.219V21.6893H192.538C197.497 21.6893 200.102 19.6294 200.102 16.7663C200.102 13.4649 196.102 12.1221 191.265 12.1221Z" fill="#202020"/>
</svg>
